<svg xmlns="http://www.w3.org/2000/svg" xmlns:xlink="http://www.w3.org/1999/xlink" width="1em" height="1em" preserveAspectRatio="xMidYMid meet" viewBox="0 0 36 36" style="-ms-transform: rotate(360deg); -webkit-transform: rotate(360deg); transform: rotate(360deg);"><path d="M28 32H15.33L19 28.37l-9.9-9.9L3.54 24a1.83 1.83 0 0 0 0 2.6L9 32H3a1 1 0 0 0 0 2h25a1 1 0 0 0 0-2z" class="clr-i-solid clr-i-solid-path-1" fill="currentColor"/><path d="M34.08 10.65l-7.3-7.3a1.83 1.83 0 0 0-2.6 0L10.47 17.06l9.9 9.9l13.71-13.71a1.85 1.85 0 0 0 0-2.6z" class="clr-i-solid clr-i-solid-path-2" fill="currentColor"/></svg>