<?xml version="1.0" encoding="iso-8859-1"?>
<!-- Generator: Adobe Illustrator 18.0.0, SVG Export Plug-In . SVG Version: 6.00 Build 0)  -->
<!DOCTYPE svg PUBLIC "-//W3C//DTD SVG 1.1//EN" "http://www.w3.org/Graphics/SVG/1.1/DTD/svg11.dtd">
<svg version="1.1" id="Capa_1" xmlns="http://www.w3.org/2000/svg" xmlns:xlink="http://www.w3.org/1999/xlink" x="0px" y="0px"
	 viewBox="0 0 487.38 487.38" style="enable-background:new 0 0 487.38 487.38;" xml:space="preserve">
<path d="M293.859,13.178c-11.516,13.291-23.54,31.847-31.738,57.099c0,0-8.41-24.196,6.923-48.126
	c-14.426,13.041-32.762,35.133-43.972,69.655c0,0-10.311-29.876,13.064-56.075c-0.445,0.227-0.891,0.446-1.33,0.673
	c-38.895,19.823-64.116,59.298-65.697,102.918c0,0.031,0,0.07,0,0.102c0,0-17.891-25.495-3.222-56.787
	c-0.008,0.008-0.016,0.016-0.024,0.023c-16.585,14.371-28.069,33.482-33.044,54.854c-2.269,9.762-3.834,20.63-4.263,32.646
	c0,0-11.202-16.045-8.583-38.263c-0.014,0.016-0.03,0.031-0.038,0.047c-8.434,11.445-15.677,22.765-21.818,33.874
	c-9.755,17.639-9.818,39.153-0.125,56.832l0,0c0,0-9.693-4.443-18.455-14.895c-17.422,52.601-9.457,96.301,12.525,118.284
	c2.15,2.15,4.614,4.201,7.267,6.147c-16.35,51.382-21.451,100.228-6.103,155.192c18.328-91.506,23.899-167.09,133.514-323.024
	c-31.003,55.942-60.455,119.886-79.724,183.744c40.696,1.878,93.124-20.778,137.003-98.358
	c50.693-89.627,30.838-189.893,129.313-244.974C384.01-3.665,340.038-0.942,293.859,13.178z"/>
<g>
</g>
<g>
</g>
<g>
</g>
<g>
</g>
<g>
</g>
<g>
</g>
<g>
</g>
<g>
</g>
<g>
</g>
<g>
</g>
<g>
</g>
<g>
</g>
<g>
</g>
<g>
</g>
<g>
</g>
</svg>
