<svg height="368pt" viewBox="0 0 368 368" width="368pt" xmlns="http://www.w3.org/2000/svg"><path d="m360 64h-40v-56c0-4.414062-3.574219-8-8-8h-256c-4.425781 0-8 3.585938-8 8v56h-40c-4.425781 0-8 3.585938-8 8v32c0 36.71875 19.183594 68.984375 48 87.496094v120.503906c0 15.664062 6.480469 29.824219 16.886719 40h-56.886719c-4.425781 0-8 3.574219-8 8s3.574219 8 8 8h352c4.425781 0 8-3.574219 8-8s-3.574219-8-8-8h-56.886719c10.40625-10.175781 16.886719-24.335938 16.886719-40v-120.503906c28.816406-18.511719 48-50.777344 48-87.496094v-32c0-4.414062-3.574219-8-8-8zm-296-48h240v166.289062c-12.015625 6.160157-25.59375 9.710938-40 9.710938h-160c-14.40625 0-27.984375-3.550781-40-9.710938zm-48 88v-24h32v91.832031c-19.527344-16.160156-32-40.566406-32-67.832031zm288 208c0 22.054688-17.945312 40-40 40h-160c-22.054688 0-40-17.945312-40-40v-112.023438c12.320312 5.152344 25.832031 8.023438 40 8.023438h160c14.167969 0 27.679688-2.871094 40-8.023438zm48-208c0 27.265625-12.472656 51.671875-32 67.832031v-91.832031h32zm0 0"/></svg>